<svg width="515" height="178" viewBox="0 0 515 178" fill="none" xmlns="http://www.w3.org/2000/svg">
<path d="M313.874 59.3768C307.486 65.946 298.993 69.5641 289.959 69.5641C280.925 69.5641 272.432 65.946 266.044 59.3779C266.044 59.3768 234.483 26.9046 234.483 26.9046C230.258 22.5611 223.385 22.5611 219.162 26.9046C217.115 29.0081 215.989 31.8063 215.989 34.782C215.989 37.7577 217.115 40.5559 219.162 42.6595C221.274 44.8317 224.048 45.9174 226.822 45.9174C229.595 45.9174 232.37 44.8307 234.482 42.6595L236.722 40.3559L252.973 57.0773L250.737 59.3768C244.35 65.946 235.856 69.5641 226.822 69.5641C217.788 69.5641 209.294 65.946 202.906 59.3768C196.518 52.8067 193 44.0724 193 34.782C193 25.4916 196.518 16.7564 202.906 10.1872C209.294 3.61807 217.788 8.59913e-06 226.822 8.59913e-06C235.855 8.59913e-06 244.349 3.61704 250.736 10.1862L274.64 34.78L282.276 42.6369L282.298 42.6595C286.522 47.003 293.395 47.003 297.619 42.6595C299.665 40.5559 300.792 37.7577 300.792 34.782C300.792 31.8063 299.665 29.0081 297.619 26.9046C293.395 22.5611 286.522 22.5611 282.298 26.9046L280.058 29.2082L263.806 12.4867L266.043 10.1872C272.431 3.61807 280.924 8.59913e-06 289.958 8.59913e-06C298.992 8.59913e-06 307.486 3.61807 313.873 10.1872C320.262 16.7564 323.78 25.4916 323.78 34.782C323.78 44.0724 320.262 52.8067 313.874 59.3768V59.3768Z" fill="url(#paint0_linear_3_12)"/>
<path d="M144.465 147.57C144.465 145.578 143.762 144.055 142.355 143C140.949 141.922 138.418 140.797 134.762 139.625C131.105 138.43 128.211 137.258 126.078 136.109C120.266 132.969 117.359 128.738 117.359 123.418C117.359 120.652 118.133 118.191 119.68 116.035C121.25 113.855 123.488 112.156 126.395 110.938C129.324 109.719 132.605 109.109 136.238 109.109C139.895 109.109 143.152 109.777 146.012 111.113C148.871 112.426 151.086 114.289 152.656 116.703C154.25 119.117 155.047 121.859 155.047 124.93H144.5C144.5 122.586 143.762 120.77 142.285 119.48C140.809 118.168 138.734 117.512 136.062 117.512C133.484 117.512 131.48 118.062 130.051 119.164C128.621 120.242 127.906 121.672 127.906 123.453C127.906 125.117 128.738 126.512 130.402 127.637C132.09 128.762 134.562 129.816 137.82 130.801C143.82 132.605 148.191 134.844 150.934 137.516C153.676 140.188 155.047 143.516 155.047 147.5C155.047 151.93 153.371 155.41 150.02 157.941C146.668 160.449 142.156 161.703 136.484 161.703C132.547 161.703 128.961 160.988 125.727 159.559C122.492 158.105 120.02 156.125 118.309 153.617C116.621 151.109 115.777 148.203 115.777 144.898H126.359C126.359 150.547 129.734 153.371 136.484 153.371C138.992 153.371 140.949 152.867 142.355 151.859C143.762 150.828 144.465 149.398 144.465 147.57ZM159.969 141.629C159.969 137.855 160.695 134.492 162.148 131.539C163.602 128.586 165.688 126.301 168.406 124.684C171.148 123.066 174.324 122.258 177.934 122.258C183.066 122.258 187.25 123.828 190.484 126.969C193.742 130.109 195.559 134.375 195.934 139.766L196.004 142.367C196.004 148.203 194.375 152.891 191.117 156.43C187.859 159.945 183.488 161.703 178.004 161.703C172.52 161.703 168.137 159.945 164.855 156.43C161.598 152.914 159.969 148.133 159.969 142.086V141.629ZM170.129 142.367C170.129 145.977 170.809 148.742 172.168 150.664C173.527 152.562 175.473 153.512 178.004 153.512C180.465 153.512 182.387 152.574 183.77 150.699C185.152 148.801 185.844 145.777 185.844 141.629C185.844 138.09 185.152 135.348 183.77 133.402C182.387 131.457 180.441 130.484 177.934 130.484C175.449 130.484 173.527 131.457 172.168 133.402C170.809 135.324 170.129 138.312 170.129 142.367ZM225.043 157.133C222.535 160.18 219.066 161.703 214.637 161.703C210.559 161.703 207.441 160.531 205.285 158.188C203.152 155.844 202.062 152.41 202.016 147.887V122.961H212.176V147.535C212.176 151.496 213.98 153.477 217.59 153.477C221.035 153.477 223.402 152.281 224.691 149.891V122.961H234.887V161H225.324L225.043 157.133ZM251.902 122.961L252.219 127.355C254.938 123.957 258.582 122.258 263.152 122.258C267.184 122.258 270.184 123.441 272.152 125.809C274.121 128.176 275.129 131.715 275.176 136.426V161H265.016V136.672C265.016 134.516 264.547 132.957 263.609 131.996C262.672 131.012 261.113 130.52 258.934 130.52C256.074 130.52 253.93 131.738 252.5 134.176V161H242.34V122.961H251.902ZM281.328 141.699C281.328 135.77 282.652 131.047 285.301 127.531C287.973 124.016 291.617 122.258 296.234 122.258C299.938 122.258 302.996 123.641 305.41 126.406V107H315.605V161H306.43L305.938 156.957C303.406 160.121 300.148 161.703 296.164 161.703C291.688 161.703 288.09 159.945 285.371 156.43C282.676 152.891 281.328 147.98 281.328 141.699ZM291.488 142.438C291.488 146 292.109 148.73 293.352 150.629C294.594 152.527 296.398 153.477 298.766 153.477C301.906 153.477 304.121 152.152 305.41 149.504V134.492C304.145 131.844 301.953 130.52 298.836 130.52C293.938 130.52 291.488 134.492 291.488 142.438ZM334.203 161H324.008V122.961H334.203V161ZM323.41 113.117C323.41 111.594 323.914 110.34 324.922 109.355C325.953 108.371 327.348 107.879 329.105 107.879C330.84 107.879 332.223 108.371 333.254 109.355C334.285 110.34 334.801 111.594 334.801 113.117C334.801 114.664 334.273 115.93 333.219 116.914C332.188 117.898 330.816 118.391 329.105 118.391C327.395 118.391 326.012 117.898 324.957 116.914C323.926 115.93 323.41 114.664 323.41 113.117ZM345.383 161V130.414H339.723V122.961H345.383V119.727C345.383 115.461 346.602 112.156 349.039 109.812C351.5 107.445 354.934 106.262 359.34 106.262C360.746 106.262 362.469 106.496 364.508 106.965L364.402 114.84C363.559 114.629 362.527 114.523 361.309 114.523C357.488 114.523 355.578 116.316 355.578 119.902V122.961H363.137V130.414H355.578V161H345.383ZM382.613 146.621L389.645 122.961H400.543L385.25 166.906L384.406 168.91C382.133 173.879 378.383 176.363 373.156 176.363C371.68 176.363 370.18 176.141 368.656 175.695V167.996L370.203 168.031C372.125 168.031 373.555 167.738 374.492 167.152C375.453 166.566 376.203 165.594 376.742 164.234L377.938 161.105L364.613 122.961H375.547L382.613 146.621Z" fill="#F9F9F9"/>
<defs>
<linearGradient id="paint0_linear_3_12" x1="258.39" y1="69.5641" x2="258.39" y2="7.62939e-06" gradientUnits="userSpaceOnUse">
<stop stop-color="#FF8A00"/>
<stop offset="1" stop-color="#FF0000"/>
</linearGradient>
</defs>
</svg>
