<svg width="131" height="70" viewBox="0 0 131 70" fill="none" xmlns="http://www.w3.org/2000/svg">
<path d="M120.874 59.3768C114.486 65.946 105.993 69.5641 96.9588 69.5641C87.925 69.5641 79.4319 65.946 73.0441 59.3779C73.0441 59.3768 41.4825 26.9046 41.4825 26.9046C37.2579 22.5611 30.3853 22.5611 26.1617 26.9046C24.1152 29.0081 22.9887 31.8063 22.9887 34.782C22.9887 37.7577 24.1152 40.5559 26.1617 42.6595C28.274 44.8317 31.0478 45.9174 33.8216 45.9174C36.5954 45.9174 39.3702 44.8307 41.4815 42.6595L43.7215 40.3559L59.9733 57.0773L57.7373 59.3768C51.3495 65.946 42.8564 69.5641 33.8216 69.5641C24.7877 69.5641 16.2937 65.946 9.90591 59.3768C3.51816 52.8067 0 44.0724 0 34.782C0 25.4916 3.51816 16.7564 9.90591 10.1872C16.2937 3.61807 24.7877 7.62939e-06 33.8216 7.62939e-06C42.8554 7.62939e-06 51.3485 3.61704 57.7363 10.1862L81.64 34.78L89.2759 42.6369L89.2979 42.6595C93.5225 47.003 100.395 47.003 104.619 42.6595C106.665 40.5559 107.792 37.7577 107.792 34.782C107.792 31.8063 106.665 29.0081 104.619 26.9046C100.395 22.5611 93.5225 22.5611 89.2979 26.9046L87.0579 29.2082L70.8061 12.4867L73.0431 10.1872C79.4309 3.61807 87.924 7.62939e-06 96.9578 7.62939e-06C105.992 7.62939e-06 114.486 3.61807 120.873 10.1872C127.262 16.7564 130.78 25.4916 130.78 34.782C130.78 44.0724 127.262 52.8067 120.874 59.3768Z" fill="url(#paint0_linear_3_5)"/>
<defs>
<linearGradient id="paint0_linear_3_5" x1="65.3902" y1="69.5641" x2="65.3902" y2="7.62939e-06" gradientUnits="userSpaceOnUse">
<stop stop-color="#FF8A00"/>
<stop offset="1" stop-color="#FF0000"/>
</linearGradient>
</defs>
</svg>
