<svg width="515" height="84" viewBox="0 0 515 84" fill="none" xmlns="http://www.w3.org/2000/svg">
<path d="M144.465 53.5703C144.465 51.5781 143.762 50.0547 142.355 49C140.949 47.9219 138.418 46.7969 134.762 45.625C131.105 44.4297 128.211 43.2578 126.078 42.1094C120.266 38.9688 117.359 34.7383 117.359 29.418C117.359 26.6523 118.133 24.1914 119.68 22.0352C121.25 19.8555 123.488 18.1563 126.395 16.9375C129.324 15.7187 132.605 15.1094 136.238 15.1094C139.895 15.1094 143.152 15.7773 146.012 17.1133C148.871 18.4258 151.086 20.2891 152.656 22.7031C154.25 25.1172 155.047 27.8594 155.047 30.9297H144.5C144.5 28.5859 143.762 26.7695 142.285 25.4805C140.809 24.168 138.734 23.5117 136.062 23.5117C133.484 23.5117 131.48 24.0625 130.051 25.1641C128.621 26.2422 127.906 27.6719 127.906 29.4531C127.906 31.1172 128.738 32.5117 130.402 33.6367C132.09 34.7617 134.562 35.8164 137.82 36.8008C143.82 38.6055 148.191 40.8438 150.934 43.5156C153.676 46.1875 155.047 49.5156 155.047 53.5C155.047 57.9297 153.371 61.4102 150.02 63.9414C146.668 66.4492 142.156 67.7031 136.484 67.7031C132.547 67.7031 128.961 66.9883 125.727 65.5586C122.492 64.1055 120.02 62.125 118.309 59.6172C116.621 57.1094 115.777 54.2031 115.777 50.8984H126.359C126.359 56.5469 129.734 59.3711 136.484 59.3711C138.992 59.3711 140.949 58.8672 142.355 57.8594C143.762 56.8281 144.465 55.3984 144.465 53.5703ZM159.969 47.6289C159.969 43.8555 160.695 40.4922 162.148 37.5391C163.602 34.5859 165.688 32.3008 168.406 30.6836C171.148 29.0664 174.324 28.2578 177.934 28.2578C183.066 28.2578 187.25 29.8281 190.484 32.9688C193.742 36.1094 195.559 40.375 195.934 45.7656L196.004 48.3672C196.004 54.2031 194.375 58.8906 191.117 62.4297C187.859 65.9453 183.488 67.7031 178.004 67.7031C172.52 67.7031 168.137 65.9453 164.855 62.4297C161.598 58.9141 159.969 54.1328 159.969 48.0859V47.6289ZM170.129 48.3672C170.129 51.9766 170.809 54.7422 172.168 56.6641C173.527 58.5625 175.473 59.5117 178.004 59.5117C180.465 59.5117 182.387 58.5742 183.77 56.6992C185.152 54.8008 185.844 51.7773 185.844 47.6289C185.844 44.0898 185.152 41.3477 183.77 39.4023C182.387 37.457 180.441 36.4844 177.934 36.4844C175.449 36.4844 173.527 37.457 172.168 39.4023C170.809 41.3242 170.129 44.3125 170.129 48.3672ZM225.043 63.1328C222.535 66.1797 219.066 67.7031 214.637 67.7031C210.559 67.7031 207.441 66.5312 205.285 64.1875C203.152 61.8438 202.062 58.4102 202.016 53.8867V28.9609H212.176V53.5352C212.176 57.4961 213.98 59.4766 217.59 59.4766C221.035 59.4766 223.402 58.2812 224.691 55.8906V28.9609H234.887V67H225.324L225.043 63.1328ZM251.902 28.9609L252.219 33.3555C254.938 29.957 258.582 28.2578 263.152 28.2578C267.184 28.2578 270.184 29.4414 272.152 31.8086C274.121 34.1758 275.129 37.7148 275.176 42.4258V67H265.016V42.6719C265.016 40.5156 264.547 38.957 263.609 37.9961C262.672 37.0117 261.113 36.5195 258.934 36.5195C256.074 36.5195 253.93 37.7383 252.5 40.1758V67H242.34V28.9609H251.902ZM281.328 47.6992C281.328 41.7695 282.652 37.0469 285.301 33.5312C287.973 30.0156 291.617 28.2578 296.234 28.2578C299.938 28.2578 302.996 29.6406 305.41 32.4062V13H315.605V67H306.43L305.938 62.957C303.406 66.1211 300.148 67.7031 296.164 67.7031C291.688 67.7031 288.09 65.9453 285.371 62.4297C282.676 58.8906 281.328 53.9805 281.328 47.6992ZM291.488 48.4375C291.488 52 292.109 54.7305 293.352 56.6289C294.594 58.5273 296.398 59.4766 298.766 59.4766C301.906 59.4766 304.121 58.1523 305.41 55.5039V40.4922C304.145 37.8438 301.953 36.5195 298.836 36.5195C293.938 36.5195 291.488 40.4922 291.488 48.4375ZM334.203 67H324.008V28.9609H334.203V67ZM323.41 19.1172C323.41 17.5938 323.914 16.3398 324.922 15.3555C325.953 14.3711 327.348 13.8789 329.105 13.8789C330.84 13.8789 332.223 14.3711 333.254 15.3555C334.285 16.3398 334.801 17.5938 334.801 19.1172C334.801 20.6641 334.273 21.9297 333.219 22.9141C332.188 23.8984 330.816 24.3906 329.105 24.3906C327.395 24.3906 326.012 23.8984 324.957 22.9141C323.926 21.9297 323.41 20.6641 323.41 19.1172ZM345.383 67V36.4141H339.723V28.9609H345.383V25.7266C345.383 21.4609 346.602 18.1563 349.039 15.8125C351.5 13.4453 354.934 12.2617 359.34 12.2617C360.746 12.2617 362.469 12.4961 364.508 12.9648L364.402 20.8398C363.559 20.6289 362.527 20.5234 361.309 20.5234C357.488 20.5234 355.578 22.3164 355.578 25.9023V28.9609H363.137V36.4141H355.578V67H345.383ZM382.613 52.6211L389.645 28.9609H400.543L385.25 72.9062L384.406 74.9102C382.133 79.8789 378.383 82.3633 373.156 82.3633C371.68 82.3633 370.18 82.1406 368.656 81.6953V73.9961L370.203 74.0312C372.125 74.0312 373.555 73.7383 374.492 73.1523C375.453 72.5664 376.203 71.5938 376.742 70.2344L377.938 67.1055L364.613 28.9609H375.547L382.613 52.6211Z" fill="black"/>
</svg>
